<mxfile host="app.diagrams.net" modified="2021-03-13T09:26:49.727Z" agent="5.0 (Windows NT 10.0; Win64; x64) AppleWebKit/537.36 (KHTML, like Gecko) Chrome/65.0.3325.146 Safari/537.36" etag="7GCTn4ubzcMseWnaR_B3" version="14.4.6" type="github">
  <diagram id="taGSsl5I4q9DBTsncLtJ" name="Page-1">
    <mxGraphModel dx="1038" dy="511" grid="1" gridSize="10" guides="1" tooltips="1" connect="1" arrows="1" fold="1" page="1" pageScale="1" pageWidth="827" pageHeight="1169" math="0" shadow="0">
      <root>
        <mxCell id="0" />
        <mxCell id="1" parent="0" />
        <mxCell id="miHG31J1jJqOBB5VkXpn-1" value="&lt;font style=&quot;font-size: 20px&quot;&gt;服务消费者&lt;/font&gt;" style="rounded=1;whiteSpace=wrap;html=1;fillColor=#dae8fc;strokeColor=#6c8ebf;" vertex="1" parent="1">
          <mxGeometry x="180" y="340" width="120" height="60" as="geometry" />
        </mxCell>
        <mxCell id="miHG31J1jJqOBB5VkXpn-3" value="&lt;font style=&quot;font-size: 20px&quot;&gt;服务提供者&lt;/font&gt;" style="rounded=1;whiteSpace=wrap;html=1;fillColor=#dae8fc;strokeColor=#6c8ebf;" vertex="1" parent="1">
          <mxGeometry x="414" y="340" width="120" height="60" as="geometry" />
        </mxCell>
        <mxCell id="miHG31J1jJqOBB5VkXpn-4" value="&lt;font style=&quot;font-size: 20px&quot;&gt;Eureka Server 1&lt;/font&gt;" style="rounded=1;whiteSpace=wrap;html=1;fillColor=#f8cecc;strokeColor=#b85450;" vertex="1" parent="1">
          <mxGeometry x="210" y="170" width="120" height="60" as="geometry" />
        </mxCell>
        <mxCell id="miHG31J1jJqOBB5VkXpn-5" value="&lt;span style=&quot;font-size: 20px&quot;&gt;Eureka Server 2&lt;/span&gt;" style="rounded=1;whiteSpace=wrap;html=1;fillColor=#f8cecc;strokeColor=#b85450;" vertex="1" parent="1">
          <mxGeometry x="390" y="170" width="120" height="60" as="geometry" />
        </mxCell>
        <mxCell id="miHG31J1jJqOBB5VkXpn-6" value="" style="endArrow=classic;html=1;exitX=0.5;exitY=0;exitDx=0;exitDy=0;entryX=0.5;entryY=1;entryDx=0;entryDy=0;" edge="1" parent="1" source="miHG31J1jJqOBB5VkXpn-3" target="miHG31J1jJqOBB5VkXpn-4">
          <mxGeometry width="50" height="50" relative="1" as="geometry">
            <mxPoint x="470" y="330" as="sourcePoint" />
            <mxPoint x="270" y="240" as="targetPoint" />
          </mxGeometry>
        </mxCell>
        <mxCell id="miHG31J1jJqOBB5VkXpn-15" value="&lt;font style=&quot;font-size: 20px&quot;&gt;注册&lt;/font&gt;" style="edgeLabel;html=1;align=center;verticalAlign=middle;resizable=0;points=[];" vertex="1" connectable="0" parent="miHG31J1jJqOBB5VkXpn-6">
          <mxGeometry x="-0.3017" y="2" relative="1" as="geometry">
            <mxPoint as="offset" />
          </mxGeometry>
        </mxCell>
        <mxCell id="miHG31J1jJqOBB5VkXpn-7" value="&lt;font style=&quot;font-size: 20px&quot;&gt;注册&lt;/font&gt;" style="endArrow=classic;html=1;exitX=0.5;exitY=0;exitDx=0;exitDy=0;entryX=0.5;entryY=1;entryDx=0;entryDy=0;" edge="1" parent="1" source="miHG31J1jJqOBB5VkXpn-3" target="miHG31J1jJqOBB5VkXpn-5">
          <mxGeometry width="50" height="50" relative="1" as="geometry">
            <mxPoint x="480" y="330" as="sourcePoint" />
            <mxPoint x="450" y="240" as="targetPoint" />
          </mxGeometry>
        </mxCell>
        <mxCell id="miHG31J1jJqOBB5VkXpn-8" value="" style="endArrow=classic;html=1;entryX=1;entryY=0.5;entryDx=0;entryDy=0;exitX=0;exitY=0.5;exitDx=0;exitDy=0;" edge="1" parent="1">
          <mxGeometry width="50" height="50" relative="1" as="geometry">
            <mxPoint x="390" y="208" as="sourcePoint" />
            <mxPoint x="330" y="208" as="targetPoint" />
          </mxGeometry>
        </mxCell>
        <mxCell id="miHG31J1jJqOBB5VkXpn-9" value="" style="endArrow=classic;html=1;exitX=0.5;exitY=0;exitDx=0;exitDy=0;entryX=0.5;entryY=1;entryDx=0;entryDy=0;" edge="1" parent="1" source="miHG31J1jJqOBB5VkXpn-1" target="miHG31J1jJqOBB5VkXpn-4">
          <mxGeometry width="50" height="50" relative="1" as="geometry">
            <mxPoint x="390" y="310" as="sourcePoint" />
            <mxPoint x="270" y="240" as="targetPoint" />
          </mxGeometry>
        </mxCell>
        <mxCell id="miHG31J1jJqOBB5VkXpn-17" value="&lt;font style=&quot;font-size: 18px&quot;&gt;服务发现&lt;/font&gt;" style="edgeLabel;html=1;align=center;verticalAlign=middle;resizable=0;points=[];" vertex="1" connectable="0" parent="miHG31J1jJqOBB5VkXpn-9">
          <mxGeometry x="0.3585" relative="1" as="geometry">
            <mxPoint x="1" as="offset" />
          </mxGeometry>
        </mxCell>
        <mxCell id="miHG31J1jJqOBB5VkXpn-10" value="" style="endArrow=classic;html=1;entryX=0;entryY=0.5;entryDx=0;entryDy=0;" edge="1" parent="1">
          <mxGeometry width="50" height="50" relative="1" as="geometry">
            <mxPoint x="330" y="192" as="sourcePoint" />
            <mxPoint x="390" y="192" as="targetPoint" />
          </mxGeometry>
        </mxCell>
        <mxCell id="miHG31J1jJqOBB5VkXpn-11" value="" style="endArrow=classic;html=1;entryX=0.5;entryY=1;entryDx=0;entryDy=0;" edge="1" parent="1" target="miHG31J1jJqOBB5VkXpn-5">
          <mxGeometry width="50" height="50" relative="1" as="geometry">
            <mxPoint x="240" y="340" as="sourcePoint" />
            <mxPoint x="440" y="260" as="targetPoint" />
          </mxGeometry>
        </mxCell>
        <mxCell id="miHG31J1jJqOBB5VkXpn-16" value="&lt;font style=&quot;font-size: 18px&quot;&gt;服务发现&lt;/font&gt;" style="edgeLabel;html=1;align=center;verticalAlign=middle;resizable=0;points=[];" vertex="1" connectable="0" parent="miHG31J1jJqOBB5VkXpn-11">
          <mxGeometry x="-0.3956" y="-1" relative="1" as="geometry">
            <mxPoint as="offset" />
          </mxGeometry>
        </mxCell>
        <mxCell id="miHG31J1jJqOBB5VkXpn-14" value="&lt;font style=&quot;font-size: 18px&quot;&gt;调用服务&lt;/font&gt;" style="endArrow=classic;html=1;exitX=1;exitY=0.5;exitDx=0;exitDy=0;entryX=0;entryY=0.5;entryDx=0;entryDy=0;dashed=1;" edge="1" parent="1" source="miHG31J1jJqOBB5VkXpn-1" target="miHG31J1jJqOBB5VkXpn-3">
          <mxGeometry width="50" height="50" relative="1" as="geometry">
            <mxPoint x="390" y="310" as="sourcePoint" />
            <mxPoint x="440" y="260" as="targetPoint" />
          </mxGeometry>
        </mxCell>
        <mxCell id="miHG31J1jJqOBB5VkXpn-18" value="&lt;font style=&quot;font-size: 18px&quot;&gt;注册&lt;/font&gt;" style="text;html=1;align=center;verticalAlign=middle;resizable=0;points=[];autosize=1;" vertex="1" parent="1">
          <mxGeometry x="332" y="164" width="50" height="20" as="geometry" />
        </mxCell>
        <mxCell id="miHG31J1jJqOBB5VkXpn-19" value="&lt;font style=&quot;font-size: 18px&quot;&gt;注册&lt;/font&gt;" style="text;html=1;align=center;verticalAlign=middle;resizable=0;points=[];autosize=1;" vertex="1" parent="1">
          <mxGeometry x="335" y="211" width="50" height="20" as="geometry" />
        </mxCell>
      </root>
    </mxGraphModel>
  </diagram>
</mxfile>
